<svg width="520" height="168" viewBox="0 0 520 168" fill="none" xmlns="http://www.w3.org/2000/svg">
<path d="M111.742 106.62H127.582V132.58H111.742V162.5H77.4219V132.58H0.421875V106.62L78.3018 4.09961H111.742V106.62ZM37.1602 106.62H79.1816V50.9258L37.1602 106.62Z" fill="#121212"/>
<path d="M503.742 106.62H519.582V132.58H503.742V162.5H469.422V132.58H392.422V106.62L470.302 4.09961H503.742V106.62ZM429.16 106.62H471.182V50.9258L429.16 106.62Z" fill="#121212"/>
<path d="M318.21 82.5145C316.971 44.6878 292.157 13.1431 258.694 3.51853C251.851 1.54304 244.637 0.5 237.195 0.5C192.43 0.5 156.141 38.5479 156.141 85.4855H201.08C202.319 123.312 227.132 154.857 260.596 164.481C267.438 166.457 274.652 167.5 282.086 167.5C326.852 167.5 363.141 129.452 363.141 82.5145H318.202H318.21ZM259.633 134.272C232.459 134.272 210.345 112.534 209.706 85.4777C209.698 85.0747 209.69 84.6717 209.69 84.2687C209.69 56.6513 232.057 34.2651 259.633 34.2651C287.209 34.2651 308.62 55.711 309.544 82.5145C309.544 82.5698 309.544 82.625 309.544 82.6883C309.56 83.2098 309.567 83.7392 309.567 84.2687C309.567 111.886 287.209 134.272 259.625 134.272H259.633Z" fill="#2F4CC9"/>
</svg>
