<svg width="208" height="168" viewBox="0 0 208 168" fill="none" xmlns="http://www.w3.org/2000/svg">
<path d="M162.21 82.5145C160.971 44.6878 136.157 13.1431 102.694 3.51853C95.8509 1.54304 88.6373 0.5 81.1948 0.5C36.4295 0.5 0.140625 38.5479 0.140625 85.4855H45.0795C46.3186 123.312 71.1321 154.857 104.596 164.481C111.438 166.457 118.652 167.5 126.086 167.5C170.852 167.5 207.141 129.452 207.141 82.5145H162.202H162.21ZM103.633 134.272C76.4595 134.272 54.3451 112.534 53.7059 85.4777C53.698 85.0747 53.6901 84.6717 53.6901 84.2687C53.6901 56.6513 76.0569 34.2651 103.633 34.2651C131.209 34.2651 152.62 55.711 153.544 82.5145C153.544 82.5698 153.544 82.625 153.544 82.6883C153.56 83.2098 153.567 83.7392 153.567 84.2687C153.567 111.886 131.209 134.272 103.625 134.272H103.633Z" fill="#2F4CC9"/>
</svg>
