<svg width="158" height="38" viewBox="0 0 158 38" fill="none" xmlns="http://www.w3.org/2000/svg">
<path d="M65.1097 22.6418C64.163 23.4214 63.0307 23.8119 61.709 23.8119C60.5309 23.8119 59.4863 23.5159 58.5764 22.9251C57.6665 22.3343 56.9612 21.5049 56.4617 20.4382C55.9623 19.3727 55.7119 18.1044 55.7119 16.6345C55.7119 15.1645 55.961 13.96 56.4617 12.9111C56.9612 11.8623 57.6576 11.052 58.5497 10.4778C59.4418 9.90492 60.4864 9.61783 61.6823 9.61783C63.0383 9.61783 64.1896 10.007 65.1364 10.7866C66.0819 11.5663 66.6627 12.6815 66.8762 14.1335H70.3036C70.1244 12.6457 69.639 11.3519 68.8447 10.2494C68.0504 9.14699 67.0376 8.29208 65.8061 7.68216C64.5747 7.07351 63.1908 6.76855 61.6556 6.76855C60.2628 6.76855 58.9919 7.01099 57.8406 7.49459C56.6892 7.97819 55.689 8.66339 54.8414 9.55148C53.9938 10.4383 53.338 11.4833 52.8741 12.6827C52.4103 13.8834 52.1777 15.2092 52.1777 16.6613C52.1777 18.1133 52.409 19.448 52.8741 20.6666C53.338 21.8852 53.9988 22.9429 54.8554 23.8387C55.7119 24.7357 56.7159 25.4298 57.8673 25.9224C59.0186 26.4149 60.2806 26.6612 61.6556 26.6612C63.1908 26.6612 64.5734 26.3613 65.8061 25.7603C67.0376 25.1606 68.0504 24.3044 68.8447 23.193C69.639 22.0817 70.1435 20.7916 70.357 19.3217H66.9029C66.6525 20.7559 66.0552 21.8622 65.1085 22.6418H65.1097Z" fill="#2F4CC9"/>
<path d="M81.8694 13.2594C80.8693 12.6954 79.6912 12.4121 78.3353 12.4121C76.9068 12.4121 75.6576 12.712 74.5863 13.313C73.515 13.9139 72.6813 14.7472 72.0828 15.8126C71.4842 16.8793 71.1855 18.1107 71.1855 19.5091C71.1855 20.9076 71.4842 22.1441 72.0828 23.2184C72.68 24.2941 73.5188 25.1362 74.599 25.7449C75.6792 26.3548 76.9411 26.6585 78.3874 26.6585C79.9937 26.6585 81.3281 26.2821 82.3905 25.5292C83.4516 24.7764 84.2065 23.7543 84.6526 22.4643H81.4666C81.2162 23.0194 80.8235 23.4315 80.2885 23.7008C79.7535 23.97 79.1283 24.104 78.414 24.104C77.1826 24.104 76.232 23.7135 75.5623 22.9339C75.0527 22.3406 74.7375 21.5469 74.6168 20.5555H84.9207C84.9563 20.3398 84.983 20.1254 85.0008 19.9098C85.0186 19.6942 85.0275 19.4619 85.0275 19.2106C85.0275 17.8491 84.7504 16.6573 84.1976 15.6353C83.6435 14.6132 82.8683 13.8208 81.8682 13.2568L81.8694 13.2594ZM78.2819 14.9666C79.3354 14.9666 80.1564 15.2895 80.7448 15.9338C81.2315 16.4659 81.5161 17.22 81.6013 18.1923H74.6727C74.8214 17.3566 75.1175 16.6752 75.5636 16.1495C76.2333 15.3609 77.1381 14.9666 78.2806 14.9666H78.2819Z" fill="#2F4CC9"/>
<path d="M90.2493 7.03613H86.8765V26.3916H90.2493V7.03613Z" fill="#2F4CC9"/>
<path d="M102.78 13.2594C101.779 12.6954 100.601 12.4121 99.2454 12.4121C97.817 12.4121 96.5678 12.712 95.4965 13.313C94.4251 13.9139 93.5915 14.7472 92.9929 15.8126C92.3943 16.8793 92.0957 18.1107 92.0957 19.5091C92.0957 20.9076 92.3943 22.1441 92.9929 23.2184C93.5902 24.2941 94.429 25.1362 95.5092 25.7449C96.5894 26.3548 97.8513 26.6585 99.2975 26.6585C100.904 26.6585 102.238 26.2821 103.301 25.5292C104.362 24.7764 105.117 23.7543 105.563 22.4643H102.377C102.126 23.0194 101.734 23.4315 101.199 23.7008C100.664 23.97 100.038 24.104 99.3242 24.104C98.0928 24.104 97.1422 23.7135 96.4724 22.9339C95.9628 22.3406 95.6477 21.5469 95.527 20.5555H105.831C105.866 20.3398 105.893 20.1254 105.911 19.9098C105.929 19.6942 105.938 19.4619 105.938 19.2106C105.938 17.8491 105.661 16.6573 105.108 15.6353C104.554 14.6132 103.778 13.8208 102.778 13.2568L102.78 13.2594ZM99.192 14.9666C100.246 14.9666 101.067 15.2895 101.655 15.9338C102.142 16.4659 102.426 17.22 102.511 18.1923H95.5829C95.7315 17.3566 96.0277 16.6752 96.4737 16.1495C97.1434 15.3609 98.0483 14.9666 99.1908 14.9666H99.192Z" fill="#2F4CC9"/>
<path d="M116.06 12.4131C114.811 12.4131 113.74 12.7129 112.848 13.3139C112.112 13.809 111.525 14.4419 111.08 15.21V12.6823H107.787V26.3928H111.16V18.9997C111.16 18.2469 111.316 17.5847 111.629 17.0105C111.941 16.4375 112.379 15.9884 112.94 15.6668C113.502 15.344 114.14 15.1832 114.854 15.1832C115.675 15.1832 116.3 15.3989 116.729 15.8289C117.157 16.2589 117.372 16.8956 117.372 17.7378V26.3941H120.772V17.0385C120.772 15.6401 120.357 14.521 119.527 13.6789C118.697 12.8367 117.541 12.4156 116.06 12.4156V12.4131Z" fill="#2F4CC9"/>
<path d="M127.626 8.2998L124.225 9.56303V12.6815H121.601V15.3432H124.225V21.8763C124.225 23.4713 124.622 24.6681 125.417 25.4644C126.212 26.2619 127.448 26.6612 129.126 26.6612C129.607 26.6612 130.044 26.6293 130.437 26.5668C130.83 26.5043 131.134 26.4188 131.347 26.3116V23.6767C131.134 23.7482 130.905 23.8069 130.665 23.8515C130.423 23.8962 130.151 23.9191 129.848 23.9191C129.08 23.9191 128.518 23.7584 128.161 23.4355C127.804 23.1127 127.626 22.6202 127.626 21.9567V15.3432H131.347V12.6815H127.626V8.2998Z" fill="#2F4CC9"/>
<path d="M136.621 6.68652H132.953V10.4226H136.621V6.68652Z" fill="#2F4CC9"/>
<path d="M136.488 12.6816H133.115V26.3921H136.488V12.6816Z" fill="#2F4CC9"/>
<path d="M149.245 19.8862C148.557 19.1334 147.545 18.6051 146.206 18.3002L143.85 17.763C143.136 17.5844 142.628 17.3738 142.324 17.1314C142.02 16.8889 141.869 16.5891 141.869 16.2305C141.869 15.7648 142.065 15.4114 142.457 15.1689C142.85 14.9265 143.43 14.8065 144.197 14.8065C145.018 14.8065 145.665 14.9494 146.138 15.2365C146.611 15.5236 146.891 15.9447 146.982 16.4998H150.061C149.954 15.2276 149.387 14.2285 148.361 13.5025C147.334 12.7764 145.973 12.4141 144.277 12.4141C142.582 12.4141 141.221 12.7764 140.248 13.5025C139.274 14.2285 138.789 15.2276 138.789 16.4998C138.789 17.5397 139.15 18.4035 139.873 19.0938C140.596 19.7842 141.706 20.2907 143.206 20.6123L145.402 21.1227C146.098 21.2834 146.571 21.485 146.822 21.7275C147.071 21.9699 147.196 22.2787 147.196 22.6551C147.196 23.1757 146.978 23.5738 146.541 23.852C146.104 24.1302 145.446 24.2692 144.572 24.2692C143.609 24.2692 142.841 24.0906 142.269 23.7321C141.698 23.3735 141.368 22.8452 141.279 22.146H138.2C138.307 23.5623 138.923 24.6686 140.048 25.4661C141.173 26.2636 142.681 26.663 144.572 26.663C146.463 26.663 147.776 26.3044 148.776 25.5873C149.775 24.8702 150.276 23.8584 150.276 22.5492C150.276 21.5272 149.931 20.6403 149.245 19.8875V19.8862Z" fill="#2F4CC9"/>
<path d="M34.892 16.4114C34.6924 10.3033 30.697 5.20954 25.3086 3.65539C24.2068 3.3364 23.0453 3.16797 21.8469 3.16797C14.6387 3.16797 8.79541 9.31183 8.79541 16.8912H16.0315C16.2311 22.9993 20.2266 28.0931 25.6149 29.6472C26.7167 29.9662 27.8782 30.1346 29.0754 30.1346C36.2835 30.1346 42.1268 23.9908 42.1268 16.4114H34.8907H34.892ZM25.4598 24.7691C21.0844 24.7691 17.5235 21.2589 17.4206 16.8899C17.4193 16.8248 17.418 16.7598 17.418 16.6947C17.418 12.2351 21.0196 8.62025 25.4598 8.62025C29.9001 8.62025 33.3479 12.0833 33.4966 16.4114C33.4966 16.4204 33.4966 16.4293 33.4966 16.4395C33.4991 16.5237 33.5004 16.6092 33.5004 16.6947C33.5004 21.1543 29.9001 24.7691 25.4586 24.7691H25.4598Z" fill="#2F4CC9"/>
</svg>
